<?xml version="1.0" standalone="no"?>
<!DOCTYPE svg PUBLIC "-//W3C//DTD SVG 20010904//EN"
 "http://www.w3.org/TR/2001/REC-SVG-20010904/DTD/svg10.dtd">
<svg version="1.0" xmlns="http://www.w3.org/2000/svg"
 width="1024.000000pt" height="1024.000000pt" viewBox="0 0 1024.000000 1024.000000"
 preserveAspectRatio="xMidYMid meet">

<g transform="translate(0.000000,1024.000000) scale(0.100000,-0.100000)"
fill="#000000" stroke="none">
<path d="M3860 8770 c-8 -5 -10 -10 -5 -10 6 0 17 5 25 10 8 5 11 10 5 10 -5
0 -17 -5 -25 -10z"/>
<path d="M3785 8741 c-22 -11 -35 -19 -30 -19 14 -1 93 36 80 37 -5 0 -28 -8
-50 -18z"/>
<path d="M3620 8672 c-447 -202 -915 -541 -1219 -883 l-83 -94 78 81 c123 125
293 283 406 376 94 76 132 105 283 210 142 99 366 220 625 341 19 8 31 16 25
16 -5 0 -57 -21 -115 -47z"/>
<path d="M3290 8540 c-9 -6 -10 -10 -3 -10 6 0 15 5 18 10 8 12 4 12 -15 0z"/>
<path d="M4880 8394 c-19 -2 -80 -9 -135 -15 -175 -19 -452 -81 -630 -142
-707 -243 -1282 -723 -1701 -1418 -82 -135 -224 -411 -224 -434 0 -5 37 64 83
155 45 91 92 179 103 195 12 17 47 72 79 123 31 50 64 96 73 102 10 5 13 10 7
10 -5 0 -3 5 5 10 8 5 15 13 15 17 0 4 23 37 50 72 371 480 736 780 1224 1005
251 117 495 191 797 243 151 26 175 27 489 27 265 0 353 -3 450 -17 238 -36
417 -81 623 -159 441 -165 796 -406 1154 -785 37 -39 68 -65 68 -57 0 18 -35
16 390 24 l365 7 -380 -1 -381 -1 -54 63 c-114 131 -341 337 -487 440 -91 65
-295 188 -391 236 -265 133 -602 236 -921 282 -101 14 -589 28 -671 18z"/>
<path d="M4860 8329 c-215 -16 -519 -77 -715 -143 -190 -64 -462 -190 -620
-286 -449 -273 -802 -644 -1105 -1160 -299 -508 -449 -1078 -450 -1704 0 -177
16 -445 28 -456 2 -3 2 29 -2 70 -11 124 -16 438 -7 405 l9 -30 1 27 c0 15 -3
30 -9 33 -5 3 -10 14 -9 23 0 15 1 15 8 -1 4 -10 11 -17 15 -15 5 2 10 -10 12
-25 1 -16 8 -35 15 -44 10 -12 10 -16 -2 -24 -8 -5 -9 -9 -3 -9 5 0 15 5 22
12 8 8 10 5 6 -17 -3 -15 -9 -36 -14 -45 -5 -9 -5 -22 0 -30 5 -8 6 -18 3 -24
-4 -5 -1 -6 7 -1 10 6 12 4 7 -8 -9 -24 0 -21 14 4 7 13 7 19 1 15 -16 -10
-24 12 -12 31 11 17 11 17 6 1 -3 -10 -1 -18 4 -18 5 0 9 57 10 128 1 213 5
312 12 312 5 0 7 3 6 8 -5 18 16 168 38 277 28 137 84 348 91 342 2 -3 -7 -45
-21 -93 -56 -195 -108 -517 -104 -649 1 -42 2 -48 5 -20 28 348 76 591 168
853 25 70 43 133 40 140 -3 7 -1 11 4 8 5 -3 16 16 26 42 10 26 31 73 47 106
16 32 27 65 24 73 -4 9 -2 11 6 7 8 -5 9 -2 5 10 -4 9 -3 15 1 12 5 -3 26 27
47 67 21 40 55 102 77 139 40 70 45 84 26 72 -7 -4 -8 -3 -4 5 4 6 11 9 15 7
4 -3 42 45 84 107 183 271 425 525 685 719 42 32 83 58 90 58 6 0 12 5 12 10
0 6 7 10 15 10 8 0 15 4 15 8 0 5 46 36 103 69 936 555 2137 548 3057 -17 47
-28 87 -54 90 -57 3 -2 -5 -12 -16 -21 -24 -20 -270 -285 -298 -322 -11 -14
-3 -9 17 12 19 20 38 34 41 30 3 -3 6 2 6 11 0 9 18 30 39 45 22 16 52 43 67
61 14 17 29 30 32 27 2 -3 -22 -34 -55 -68 -149 -156 -486 -525 -543 -593 -51
-61 4 -4 136 140 65 71 206 222 312 334 107 112 216 231 243 263 32 39 51 55
54 45 7 -16 0 -2189 -6 -2229 -8 -47 -22 -45 -15 2 7 57 7 25 2 315 -3 151 0
281 6 330 8 59 8 80 -1 83 -6 2 -11 13 -10 25 0 21 1 21 9 2 8 -18 9 -17 9 8
1 16 -3 26 -9 22 -5 -3 -10 -1 -10 4 0 6 4 11 8 11 5 0 9 20 11 45 1 31 -2 45
-11 45 -9 0 -9 3 -2 8 11 7 16 102 5 102 -3 0 -5 17 -3 38 6 79 7 114 1 117
-3 2 -4 26 -2 52 7 104 8 193 2 193 -8 0 -2 610 6 676 5 42 -7 60 -19 29 -3
-8 -7 -1157 -10 -2552 -2 -1396 -1 -2477 4 -2403 4 74 9 195 10 268 2 72 7
132 11 132 12 0 11 15 18 -245 4 -126 8 928 9 2343 1 1414 5 2572 8 2572 13 0
180 -132 282 -223 57 -50 135 -126 174 -169 l70 -78 380 0 381 0 74 57 c127
97 155 90 -344 92 l-436 1 -36 43 c-19 23 -82 90 -140 149 -403 413 -960 704
-1537 803 -230 39 -558 53 -804 34z m3362 -1062 c-6 -6 -24 -20 -40 -29 l-29
-17 1 28 c1 25 5 28 40 29 30 2 36 -1 28 -11z m-117 -87 c-19 -12 -45 -19 -70
-19 l-40 2 47 6 c27 4 53 12 60 19 7 7 17 12 23 12 5 0 -3 -9 -20 -20z m-5759
-887 c-8 -15 -15 -25 -16 -21 0 12 23 58 27 54 3 -2 -2 -17 -11 -33z m-44
-120 c-5 -10 -22 -55 -37 -101 -15 -46 -29 -81 -31 -79 -5 4 7 44 43 140 14
38 27 66 30 63 2 -2 0 -13 -5 -23z m4477 -940 c-1 -70 -4 -108 -8 -93 l-8 25
-5 -25 c-4 -18 -6 -14 -6 15 -1 23 2 35 6 27 5 -7 8 14 8 47 -1 32 -4 57 -8
54 -5 -2 -8 3 -8 12 0 9 5 13 10 10 6 -3 10 1 10 9 0 9 -5 16 -11 16 -5 0 -7
5 -4 10 18 29 25 -1 24 -107z m-4772 72 c0 -8 -4 -12 -9 -9 -4 3 -8 9 -8 15 0
5 4 9 8 9 5 0 9 -7 9 -15z m1 -141 c4 2 7 -9 7 -25 0 -24 -2 -27 -11 -14 -6 8
-14 12 -17 9 -3 -3 -5 8 -5 26 1 25 3 28 10 16 5 -9 12 -15 16 -12z m48 -142
c-10 -10 -29 15 -21 28 6 9 10 8 17 -4 6 -10 7 -20 4 -24z"/>
<path d="M2939 8313 c-13 -16 -12 -17 4 -4 9 7 17 15 17 17 0 8 -8 3 -21 -13z"/>
<path d="M2899 8283 c-13 -16 -12 -17 4 -4 16 13 21 21 13 21 -2 0 -10 -8 -17
-17z"/>
<path d="M2769 8183 c-13 -16 -12 -17 4 -4 9 7 17 15 17 17 0 8 -8 3 -21 -13z"/>
<path d="M2709 8133 c-13 -16 -12 -17 4 -4 9 7 17 15 17 17 0 8 -8 3 -21 -13z"/>
<path d="M2614 8048 l-19 -23 23 19 c21 18 27 26 19 26 -2 0 -12 -10 -23 -22z"/>
<path d="M2439 7883 l-34 -38 38 34 c20 19 37 36 37 38 0 8 -8 0 -41 -34z"/>
<path d="M2284 7658 l-19 -23 23 19 c12 11 22 21 22 23 0 8 -8 2 -26 -19z"/>
<path d="M3495 7640 c-6 -9 48 -70 278 -314 48 -50 48 -50 -5 12 -29 35 -67
80 -85 100 -17 21 -29 40 -26 45 5 8 -136 167 -148 167 -4 0 -11 -5 -14 -10z
m30 -20 c10 -11 16 -20 13 -20 -3 0 -13 9 -23 20 -10 11 -16 20 -13 20 3 0 13
-9 23 -20z m125 -134 c0 -5 -11 1 -25 14 -14 13 -25 28 -25 33 0 12 50 -35 50
-47z"/>
<path d="M3455 6625 c0 -539 1 -758 2 -487 2 272 2 713 0 980 -1 268 -2 46 -2
-493z"/>
<path d="M3488 6867 c1 -386 3 -794 5 -907 1 -113 3 196 4 685 1 490 -1 898
-5 907 -4 10 -6 -299 -4 -685z"/>
<path d="M6750 7540 c0 -5 5 -10 10 -10 6 0 10 5 10 10 0 6 -4 10 -10 10 -5 0
-10 -4 -10 -10z"/>
<path d="M6340 7235 c-30 -30 -50 -55 -44 -55 6 0 32 25 58 55 26 30 46 55 44
55 -2 0 -28 -25 -58 -55z"/>
<path d="M6240 7125 c-24 -25 -42 -45 -39 -45 3 0 25 20 49 45 24 25 42 45 39
45 -3 0 -25 -20 -49 -45z"/>
<path d="M6104 6978 l-19 -23 23 19 c21 18 27 26 19 26 -2 0 -12 -10 -23 -22z"/>
<path d="M5979 6843 c-13 -16 -12 -17 4 -4 9 7 17 15 17 17 0 8 -8 3 -21 -13z"/>
<path d="M7153 6794 l-63 -35 0 -698 0 -699 238 -7 c130 -4 293 -5 361 -1 143
7 199 25 76 23 -154 -2 -488 3 -484 7 3 3 123 6 267 7 222 1 261 3 251 15 -17
20 -535 20 -564 0 -20 -14 -20 -9 -17 682 l2 695 23 -19 c14 -12 12 -8 -5 12
-34 37 -34 41 -5 47 19 4 19 4 2 5 -11 1 -48 -14 -82 -34z"/>
<path d="M5855 6658 l-40 -43 43 40 c23 21 42 40 42 42 0 8 -9 0 -45 -39z"/>
<path d="M7254 6475 c0 -93 2 -133 3 -88 2 45 2 122 0 170 -1 48 -3 12 -3 -82z"/>
<path d="M5740 6533 l-65 -68 68 65 c37 35 67 66 67 67 0 8 -10 -2 -70 -64z"/>
<path d="M5659 6493 c-13 -16 -12 -17 4 -4 9 7 17 15 17 17 0 8 -8 3 -21 -13z"/>
<path d="M5624 6408 l-29 -33 33 29 c30 28 37 36 29 36 -2 0 -16 -15 -33 -32z"/>
<path d="M2150 6290 c-17 -45 -29 -84 -27 -86 2 -2 18 33 35 78 17 45 30 84
28 86 -2 2 -18 -33 -36 -78z"/>
<path d="M5484 6258 l-29 -33 33 29 c30 28 37 36 29 36 -2 0 -16 -15 -33 -32z"/>
<path d="M7253 6200 c0 -25 2 -35 4 -22 2 12 2 32 0 45 -2 12 -4 2 -4 -23z"/>
<path d="M7798 5818 c1 -216 6 -396 10 -400 4 -4 6 162 4 370 -1 207 1 373 5
368 4 -4 10 -177 13 -384 l6 -377 2 347 2 347 403 3 402 3 103 34 c56 18 102
36 102 40 0 3 -10 13 -22 21 -20 13 -101 15 -528 18 l-505 3 3 -393z m42 366
c0 -2 -7 -4 -15 -4 -8 0 -15 4 -15 10 0 5 7 7 15 4 8 -4 15 -8 15 -10z m938 1
c51 -6 73 -25 30 -25 -13 0 -30 0 -38 -1 -8 0 -118 2 -245 4 -126 3 -331 6
-455 8 -153 2 -198 5 -140 8 130 9 788 13 848 6z"/>
<path d="M4020 5876 l0 -295 -255 -3 c-152 -2 -258 -7 -264 -13 -7 -7 82 -11
267 -13 l277 -4 -2 289 c-2 178 1 280 7 268 5 -11 9 -147 9 -302 l1 -283 -287
-1 c-226 -1 -279 -3 -248 -12 24 -6 158 -11 335 -11 l295 -1 5 207 5 207 70
-87 c38 -48 102 -125 141 -172 144 -170 280 -334 324 -388 l45 -56 5 -656 5
-655 3 657 c2 646 5 701 33 657 7 -11 9 -9 9 6 0 11 -31 56 -68 100 -37 44
-198 238 -357 430 -158 193 -303 367 -322 388 l-33 37 0 -294z"/>
<path d="M6098 6053 c-53 -65 -150 -184 -215 -264 -65 -81 -192 -238 -281
-349 l-164 -201 1 -1997 c1 -1257 5 -2000 11 -2006 23 -23 30 19 33 189 l2
180 3 -205 c1 -159 -1 -201 -10 -192 -16 16 -684 17 -694 1 -3 -6 0 -15 7 -20
16 -10 592 -12 663 -3 l46 7 0 2013 0 2013 136 168 c255 315 400 498 412 518
9 15 11 -511 12 -2196 l0 -2217 47 -113 c25 -63 49 -117 53 -122 8 -9 313 94
475 159 158 65 365 166 359 175 -3 5 1 7 8 4 17 -6 160 73 153 85 -3 5 0 12 6
16 8 4 9 3 5 -4 -4 -7 -4 -12 1 -12 12 0 65 37 61 42 -5 8 23 38 35 38 6 0 2
-7 -9 -15 -10 -8 -15 -15 -10 -15 16 0 166 102 161 110 -2 4 6 16 18 27 31 29
83 60 74 46 -15 -25 10 -13 49 23 35 32 36 33 7 14 -44 -29 -42 -19 4 16 20
15 33 22 29 16 -14 -23 6 -12 55 29 27 22 47 44 44 48 -2 4 12 23 33 42 l37
34 -29 -33 c-51 -55 -13 -35 47 26 32 32 54 62 50 67 -5 4 -3 5 3 2 7 -4 18 1
25 10 12 14 12 16 -1 8 -9 -5 -12 -5 -7 1 5 5 10 7 12 4 7 -10 54 43 48 54 -3
6 -2 8 2 3 12 -10 66 43 58 57 -3 6 -2 8 2 3 5 -4 24 7 42 25 37 36 45 62 11
32 -21 -17 -21 -16 1 9 14 15 27 25 29 22 7 -6 42 25 42 37 0 5 -6 6 -12 2 -7
-4 4 12 24 37 20 24 41 43 47 42 5 -2 31 25 58 60 215 274 420 632 582 1015
34 79 61 146 61 148 0 3 -6 2 -12 -1 -7 -4 -4 1 6 9 11 9 17 18 14 22 -7 6
-68 -51 -68 -63 0 -32 -232 -511 -313 -648 -325 -546 -733 -983 -1202 -1288
-288 -186 -506 -290 -958 -454 -43 -15 -92 -40 -109 -55 -18 -16 -35 -28 -38
-28 -4 0 -9 30 -11 68 -2 37 -4 1122 -4 2412 0 2067 2 2348 15 2370 13 22 16
-75 20 -930 l5 -955 3 973 c1 534 1 972 -1 972 -1 0 -46 -53 -99 -117z m2697
-2396 c-105 -260 -245 -529 -408 -781 -80 -124 -213 -306 -224 -306 -6 0 38
61 65 90 41 44 266 394 298 462 8 18 21 42 27 53 53 88 73 126 127 245 53 116
92 207 131 309 5 13 12 22 14 19 3 -2 -11 -44 -30 -91z m-3308 -1369 c-3 -7
-5 -2 -5 12 0 14 2 19 5 13 2 -7 2 -19 0 -25z m2463 28 c0 -2 -8 -10 -17 -17
-16 -13 -17 -12 -4 4 13 16 21 21 21 13z m-2463 -208 c-2 -13 -4 -5 -4 17 -1
22 1 32 4 23 2 -10 2 -28 0 -40z m2303 48 c0 -2 -8 -10 -17 -17 -16 -13 -17
-12 -4 4 13 16 21 21 21 13z m-2303 -98 c-3 -8 -6 -5 -6 6 -1 11 2 17 5 13 3
-3 4 -12 1 -19z m0 -40 c-3 -8 -6 -5 -6 6 -1 11 2 17 5 13 3 -3 4 -12 1 -19z
m0 -250 c-2 -29 -3 -6 -3 52 0 58 1 81 3 53 2 -29 2 -77 0 -105z m1898 62 c-3
-5 -12 -10 -18 -10 -7 0 -6 4 3 10 19 12 23 12 15 0z m-575 -325 c-14 -8 -29
-14 -35 -14 -5 0 1 6 15 14 14 8 30 14 35 14 6 0 -1 -6 -15 -14z m-205 -85
c-3 -5 -12 -10 -18 -10 -7 0 -6 4 3 10 19 12 23 12 15 0z m-305 -109 c-8 -5
-26 -11 -40 -15 -21 -5 -20 -3 5 9 32 15 60 20 35 6z"/>
<path d="M5379 6143 c-13 -16 -12 -17 4 -4 9 7 17 15 17 17 0 8 -8 3 -21 -13z"/>
<path d="M2061 6033 c-1 -6 -4 -20 -7 -30 -5 -17 -5 -17 6 0 6 10 9 23 6 30
-3 9 -5 9 -5 0z"/>
<path d="M2011 5844 c0 -11 3 -14 6 -6 3 7 2 16 -1 19 -3 4 -6 -2 -5 -13z"/>
<path d="M2001 5804 c0 -11 3 -14 6 -6 3 7 2 16 -1 19 -3 4 -6 -2 -5 -13z"/>
<path d="M1401 5774 c0 -11 3 -14 6 -6 3 7 2 16 -1 19 -3 4 -6 -2 -5 -13z"/>
<path d="M1985 5735 c-3 -26 -4 -49 -2 -51 3 -3 8 16 12 41 3 26 4 49 2 51 -3
3 -8 -16 -12 -41z"/>
<path d="M1352 5705 c0 -16 2 -22 5 -12 2 9 2 23 0 30 -3 6 -5 -1 -5 -18z"/>
<path d="M1381 5654 c0 -11 3 -14 6 -6 3 7 2 16 -1 19 -3 4 -6 -2 -5 -13z"/>
<path d="M1971 5654 c0 -11 3 -14 6 -6 3 7 2 16 -1 19 -3 4 -6 -2 -5 -13z"/>
<path d="M1342 5635 c0 -16 2 -22 5 -12 2 9 2 23 0 30 -3 6 -5 -1 -5 -18z"/>
<path d="M1961 5594 c0 -11 3 -14 6 -6 3 7 2 16 -1 19 -3 4 -6 -2 -5 -13z"/>
<path d="M1332 5560 c0 -19 2 -27 5 -17 2 9 2 25 0 35 -3 9 -5 1 -5 -18z"/>
<path d="M1371 5574 c0 -11 3 -14 6 -6 3 7 2 16 -1 19 -3 4 -6 -2 -5 -13z"/>
<path d="M1361 5484 c0 -11 3 -14 6 -6 3 7 2 16 -1 19 -3 4 -6 -2 -5 -13z"/>
<path d="M1322 5465 c0 -16 2 -22 5 -12 2 9 2 23 0 30 -3 6 -5 -1 -5 -18z"/>
<path d="M1313 5340 c0 -30 2 -43 4 -27 2 15 2 39 0 55 -2 15 -4 2 -4 -28z"/>
<path d="M1352 5335 c0 -16 2 -22 5 -12 2 9 2 23 0 30 -3 6 -5 -1 -5 -18z"/>
<path d="M1344 5140 c0 -74 1 -105 3 -67 2 37 2 97 0 135 -2 37 -3 6 -3 -68z"/>
<path d="M2092 5030 c-2 -171 23 -519 36 -506 2 3 -1 56 -8 118 -6 62 -15 203
-19 313 -7 173 -8 183 -9 75z"/>
<path d="M4097 5105 c-15 -8 -40 -24 -55 -36 l-27 -21 3 -881 c2 -485 7 -885
11 -889 3 -4 5 391 3 877 -4 803 -3 886 12 900 15 15 16 -60 18 -932 0 -521 2
-959 3 -973 2 -14 3 -206 4 -427 1 -248 5 -403 11 -403 5 0 25 29 45 63 l35
64 0 1336 c0 1267 -1 1337 -17 1337 -10 0 -31 -7 -46 -15z"/>
<path d="M3913 5103 c20 -2 54 -2 75 0 20 2 3 4 -38 4 -41 0 -58 -2 -37 -4z"/>
<path d="M1302 5040 c0 -14 2 -19 5 -12 2 6 2 18 0 25 -3 6 -5 1 -5 -13z"/>
<path d="M7087 4933 c-4 -3 -7 -540 -7 -1193 l0 -1187 -102 -75 c-57 -41 -120
-86 -140 -99 -40 -25 -50 -42 -20 -33 13 5 14 4 3 -4 -8 -6 -20 -8 -27 -5 -9
3 -12 -15 -11 -76 l2 -80 45 26 c73 43 359 233 365 244 4 5 2 9 -4 9 -5 0 -13
-5 -16 -10 -7 -12 -249 -175 -326 -221 -42 -24 -49 -26 -49 -11 0 10 28 33 73
60 148 88 243 152 285 191 30 28 41 34 37 21 -4 -11 -2 -20 3 -20 14 0 24
2443 10 2451 -7 4 2 9 18 12 16 2 -7 5 -52 6 -44 0 -84 -2 -87 -6z"/>
<path d="M8892 4867 c-11 -19 -52 -132 -91 -252 -39 -119 -75 -224 -80 -232
-7 -13 -74 -15 -471 -13 l-463 1 6 -382 c3 -210 8 -384 11 -387 4 -3 7 87 7
199 l2 204 8 -175 c14 -290 15 -280 17 108 l2 372 455 0 c356 0 456 3 460 13
72 233 116 379 113 383 -2 2 -30 -81 -63 -184 -32 -103 -62 -191 -67 -197 -6
-6 -7 -4 -4 5 3 8 26 85 51 170 84 277 97 313 107 299 7 -10 7 -8 3 8 -3 12 1
36 10 53 23 44 12 49 -13 7z m-194 -544 c-10 -2 -28 -2 -40 0 -13 2 -5 4 17 4
22 1 32 -1 23 -4z m-881 -35 c-3 -8 -6 -5 -6 6 -1 11 2 17 5 13 3 -3 4 -12 1
-19z m0 -105 c-3 -10 -5 -2 -5 17 0 19 2 27 5 18 2 -10 2 -26 0 -35z"/>
<path d="M1313 4810 c0 -41 2 -58 4 -37 2 20 2 54 0 75 -2 20 -4 3 -4 -38z"/>
<path d="M1352 4810 c-3 -113 37 -440 74 -598 8 -36 13 -71 10 -78 -3 -8 -1
-14 5 -14 6 0 7 -5 4 -11 -8 -13 24 -149 35 -149 14 0 21 -36 12 -61 -9 -23
-10 -23 -17 9 -4 18 -9 31 -12 29 -2 -3 5 -38 17 -79 29 -95 111 -320 116
-315 2 2 -21 74 -52 160 -49 134 -55 160 -45 179 6 13 10 16 7 6 -5 -18 16
-95 41 -148 9 -19 16 -41 16 -47 0 -7 4 -13 9 -13 5 0 7 -4 4 -9 -5 -8 9 -48
46 -131 6 -14 11 -28 10 -32 -1 -5 3 -8 9 -8 5 0 8 -4 4 -9 -7 -12 15 -60 38
-84 10 -10 15 -22 12 -27 -4 -6 -2 -10 3 -10 5 0 10 -11 10 -25 0 -14 -2 -25
-4 -25 -9 0 -33 73 -27 83 3 5 1 7 -4 4 -6 -4 -22 20 -38 58 -16 36 -30 63
-32 61 -6 -6 81 -195 142 -313 68 -127 178 -310 264 -433 99 -144 248 -328
216 -267 -4 6 31 -28 79 -78 47 -49 85 -94 86 -98 0 -7 -69 64 -133 138 -15
17 -27 25 -27 20 -1 -39 565 -573 585 -553 3 3 -10 16 -29 29 -45 32 -219 189
-209 189 4 0 28 -19 53 -43 25 -23 80 -71 123 -106 42 -35 74 -67 72 -71 -7
-11 168 -139 306 -225 105 -65 126 -75 113 -52 -4 7 -3 9 2 4 5 -5 9 -14 9
-20 0 -41 798 -389 825 -360 5 4 24 51 44 104 l36 97 0 291 c0 198 -3 291 -11
291 -5 0 -7 -5 -3 -11 4 -7 1 -10 -7 -7 -8 3 -13 10 -12 15 1 5 -24 20 -55 33
-271 110 -563 280 -784 457 -38 30 -68 51 -68 49 0 -11 198 -163 287 -220 65
-42 89 -63 80 -69 -8 -6 -7 -7 5 -3 22 7 90 -32 81 -47 -3 -5 -1 -7 5 -3 12 7
62 -13 62 -25 0 -18 33 -39 52 -33 13 4 18 2 14 -5 -9 -14 43 -71 64 -71 9 0
25 -9 34 -19 20 -22 66 -34 66 -17 0 6 4 5 9 -3 6 -8 16 -11 31 -6 14 4 20 3
16 -3 -5 -9 11 -21 25 -18 4 0 16 -7 26 -17 11 -9 23 -14 26 -11 4 4 9 0 13
-9 7 -18 -79 -127 -100 -127 -7 0 -89 38 -184 85 -95 46 -172 82 -172 79 0 -9
342 -174 361 -174 18 0 19 -12 21 -267 1 -157 4 -235 8 -188 l6 80 4 -93 c4
-79 3 -91 -10 -86 -8 3 -37 13 -65 21 -46 14 -126 45 -200 78 -16 8 -58 25
-92 39 -71 29 -261 123 -378 187 -400 216 -842 597 -1158 996 -157 198 -378
574 -481 815 -181 428 -293 898 -319 1348 l-3 55 -2 -65z m433 -1625 c118
-221 259 -433 411 -622 15 -18 24 -33 21 -33 -14 0 -161 195 -250 330 -118
180 -315 530 -245 435 8 -11 37 -60 63 -110z m690 -934 c-5 -5 -28 18 -55 54
-8 11 2 5 23 -14 20 -19 34 -37 32 -40z m55 -46 c19 -19 32 -35 29 -35 -3 0
-20 16 -39 35 -19 19 -32 35 -29 35 3 0 20 -16 39 -35z m1255 15 c3 -6 -1 -7
-9 -4 -18 7 -21 14 -7 14 6 0 13 -4 16 -10z m79 -51 c-9 -15 -34 -10 -28 5 3
8 12 12 20 9 8 -3 11 -9 8 -14z m41 -9 c3 -6 -1 -7 -9 -4 -18 7 -21 14 -7 14
6 0 13 -4 16 -10z m88 -38 c72 -31 89 -42 64 -42 -9 0 -19 5 -22 11 -4 6 -14
8 -22 5 -8 -3 -12 -2 -9 3 3 4 -13 14 -35 21 -22 8 -42 17 -45 22 -7 12 -6 11
69 -20z m-48 -12 c3 -5 2 -10 -4 -10 -5 0 -13 5 -16 10 -3 6 -2 10 4 10 5 0
13 -4 16 -10z m-1008 -244 c4 -5 -15 5 -40 23 -25 17 -49 37 -53 43 -4 6 14
-4 40 -22 26 -19 50 -39 53 -44z m1133 -26 c0 -47 -4 -80 -10 -80 -11 0 -14
142 -3 153 12 13 13 7 13 -73z m-1000 -67 c0 -7 -39 17 -46 28 -3 6 5 3 20 -6
14 -10 26 -19 26 -22z m130 -79 c0 -2 -9 0 -20 6 -11 6 -20 13 -20 16 0 2 9 0
20 -6 11 -6 20 -13 20 -16z m857 4 c-3 -8 -6 -5 -6 6 -1 11 2 17 5 13 3 -3 4
-12 1 -19z m-722 -86 c-3 -3 -11 0 -18 7 -9 10 -8 11 6 5 10 -3 15 -9 12 -12z
m722 -34 c-3 -8 -6 -5 -6 6 -1 11 2 17 5 13 3 -3 4 -12 1 -19z m-612 -26 c-3
-3 -11 0 -18 7 -9 10 -8 11 6 5 10 -3 15 -9 12 -12z m340 -143 c31 -12 55 -23
53 -25 -4 -3 -109 34 -117 42 -9 8 10 3 64 -17z m95 -39 c8 -5 11 -10 5 -10
-5 0 -17 5 -25 10 -8 5 -10 10 -5 10 6 0 17 -5 25 -10z m80 -32 c10 -6 7 -7
-10 -2 -14 3 -32 11 -40 16 -10 6 -7 7 10 2 14 -3 32 -11 40 -16z m93 -24 c15
-4 27 -11 27 -16 0 -10 -26 -4 -74 19 -25 11 -26 13 -6 8 14 -3 37 -8 53 -11z"/>
<path d="M7253 4780 c0 -36 2 -50 4 -32 2 17 2 47 0 65 -2 17 -4 3 -4 -33z"/>
<path d="M2066 4797 c3 -10 9 -15 12 -12 3 3 0 11 -7 18 -10 9 -11 8 -5 -6z"/>
<path d="M2045 4780 c-3 -5 -1 -10 4 -10 6 0 11 5 11 10 0 6 -2 10 -4 10 -3 0
-8 -4 -11 -10z"/>
<path d="M8876 4754 c-4 -14 -5 -28 -3 -31 3 -2 8 8 11 23 4 14 5 28 3 31 -3
2 -8 -8 -11 -23z"/>
<path d="M1323 4670 c0 -25 2 -35 4 -22 2 12 2 32 0 45 -2 12 -4 2 -4 -23z"/>
<path d="M1336 4540 c3 -41 12 -104 19 -140 12 -55 13 -57 8 -15 -3 28 -11 91
-19 140 l-13 90 5 -75z"/>
<path d="M2611 4554 c0 -11 3 -14 6 -6 3 7 2 16 -1 19 -3 4 -6 -2 -5 -13z"/>
<path d="M2001 4534 c0 -11 3 -14 6 -6 3 7 2 16 -1 19 -3 4 -6 -2 -5 -13z"/>
<path d="M2012 4485 c0 -16 2 -22 5 -12 2 9 2 23 0 30 -3 6 -5 -1 -5 -18z"/>
<path d="M2132 4485 c0 -16 4 -41 8 -55 l8 -25 0 25 c0 14 -4 39 -8 55 l-8 30
0 -30z"/>
<path d="M2630 4485 c-11 -13 -6 -15 36 -15 27 0 56 -5 64 -10 11 -8 -6 -10
-58 -9 -39 1 -75 -1 -79 -4 -3 -4 188 -7 425 -7 270 0 432 4 432 10 0 5 10 18
22 30 l22 20 -426 0 c-366 0 -427 -2 -438 -15z"/>
<path d="M2021 4414 c0 -11 3 -14 6 -6 3 7 2 16 -1 19 -3 4 -6 -2 -5 -13z"/>
<path d="M3433 4375 c0 -33 2 -45 4 -27 2 18 2 45 0 60 -2 15 -4 0 -4 -33z"/>
<path d="M2152 4380 c0 -14 2 -19 5 -12 2 6 2 18 0 25 -3 6 -5 1 -5 -13z"/>
<path d="M2031 4364 c0 -11 3 -14 6 -6 3 7 2 16 -1 19 -3 4 -6 -2 -5 -13z"/>
<path d="M2166 4315 c7 -51 47 -201 51 -189 1 5 -11 59 -27 119 -16 61 -27 92
-24 70z"/>
<path d="M1372 4310 c0 -14 2 -19 5 -12 2 6 2 18 0 25 -3 6 -5 1 -5 -13z"/>
<path d="M2041 4304 c0 -11 3 -14 6 -6 3 7 2 16 -1 19 -3 4 -6 -2 -5 -13z"/>
<path d="M1382 4255 c0 -16 2 -22 5 -12 2 9 2 23 0 30 -3 6 -5 -1 -5 -18z"/>
<path d="M1391 4204 c0 -11 3 -14 6 -6 3 7 2 16 -1 19 -3 4 -6 -2 -5 -13z"/>
<path d="M6192 4180 c0 -14 2 -19 5 -12 2 6 2 18 0 25 -3 6 -5 1 -5 -13z"/>
<path d="M1401 4154 c0 -11 3 -14 6 -6 3 7 2 16 -1 19 -3 4 -6 -2 -5 -13z"/>
<path d="M1411 4114 c0 -11 3 -14 6 -6 3 7 2 16 -1 19 -3 4 -6 -2 -5 -13z"/>
<path d="M2222 4100 c0 -8 8 -37 18 -65 10 -27 18 -43 18 -35 0 8 -8 38 -18
65 -10 28 -18 43 -18 35z"/>
<path d="M1421 4074 c0 -11 3 -14 6 -6 3 7 2 16 -1 19 -3 4 -6 -2 -5 -13z"/>
<path d="M1431 4034 c0 -11 3 -14 6 -6 3 7 2 16 -1 19 -3 4 -6 -2 -5 -13z"/>
<path d="M1441 4000 c0 -8 4 -24 9 -35 5 -13 9 -14 9 -5 0 8 -4 24 -9 35 -5
13 -9 14 -9 5z"/>
<path d="M3433 3955 c0 -22 2 -30 4 -17 2 12 2 30 0 40 -3 9 -5 -1 -4 -23z"/>
<path d="M2266 3960 c4 -14 13 -38 20 -55 11 -24 13 -25 8 -5 -4 14 -13 39
-20 55 -11 24 -13 25 -8 5z"/>
<path d="M3431 3884 c0 -11 3 -14 6 -6 3 7 2 16 -1 19 -3 4 -6 -2 -5 -13z"/>
<path d="M4752 3860 c0 -14 2 -19 5 -12 2 6 2 18 0 25 -3 6 -5 1 -5 -13z"/>
<path d="M2300 3865 c0 -5 5 -17 10 -25 5 -8 10 -10 10 -5 0 6 -5 17 -10 25
-5 8 -10 11 -10 5z"/>
<path d="M8460 3830 c-18 -12 -2 -12 25 0 13 6 15 9 5 9 -8 0 -22 -4 -30 -9z"/>
<path d="M2321 3815 c0 -5 6 -21 14 -35 8 -14 14 -20 14 -15 0 6 -6 21 -14 35
-8 14 -14 21 -14 15z"/>
<path d="M8395 3805 c-25 -12 -26 -14 -5 -9 28 7 60 23 45 23 -5 0 -23 -6 -40
-14z"/>
<path d="M8306 3774 c-22 -8 -42 -17 -45 -20 -10 -9 52 8 79 22 33 17 15 16
-34 -2z"/>
<path d="M2350 3747 c0 -11 120 -247 125 -247 5 0 -112 239 -121 249 -2 2 -4
1 -4 -2z"/>
<path d="M8220 3740 c-8 -5 -10 -10 -5 -10 6 0 17 5 25 10 8 5 11 10 5 10 -5
0 -17 -5 -25 -10z"/>
<path d="M3432 3720 c0 -14 2 -19 5 -12 2 6 2 18 0 25 -3 6 -5 1 -5 -13z"/>
<path d="M8155 3715 c-25 -12 -26 -14 -5 -9 28 7 60 23 45 23 -5 0 -23 -6 -40
-14z"/>
<path d="M8084 3690 c-11 -4 -29 -21 -39 -37 -10 -15 -60 -85 -111 -155 l-94
-127 1 -113 c1 -85 3 -106 10 -83 5 17 9 70 8 118 -1 48 1 91 5 94 3 3 7 -9 7
-28 1 -19 3 -26 6 -16 3 10 9 14 16 10 8 -4 8 -2 -1 9 -10 12 -9 18 3 28 8 7
15 17 15 22 0 6 -7 5 -16 -2 -13 -12 -14 -10 -3 14 9 19 15 23 21 14 7 -10 8
-9 6 2 -4 20 62 111 75 103 6 -3 7 -1 3 5 -9 16 70 124 102 138 30 14 18 17
-14 4z"/>
<path d="M3432 3630 c0 -14 2 -19 5 -12 2 6 2 18 0 25 -3 6 -5 1 -5 -13z"/>
<path d="M2493 3465 c9 -16 23 -39 32 -50 9 -11 7 -2 -6 20 -27 49 -47 72 -26
30z"/>
<path d="M2546 3378 c156 -260 378 -521 624 -734 24 -22 -41 47 -146 151 -190
188 -322 350 -434 528 -23 37 -44 67 -46 67 -3 0 -2 -6 2 -12z"/>
<path d="M8020 3340 c-12 -16 -19 -30 -16 -30 2 0 14 14 26 30 12 17 19 30 16
30 -2 0 -14 -13 -26 -30z"/>
<path d="M7979 3283 c-13 -16 -12 -17 4 -4 16 13 21 21 13 21 -2 0 -10 -8 -17
-17z"/>
<path d="M4032 3225 c0 -16 2 -22 5 -12 2 9 2 23 0 30 -3 6 -5 -1 -5 -18z"/>
<path d="M4031 3144 c0 -11 3 -14 6 -6 3 7 2 16 -1 19 -3 4 -6 -2 -5 -13z"/>
<path d="M2520 3060 c12 -16 24 -30 26 -30 3 0 -4 14 -16 30 -12 17 -24 30
-26 30 -3 0 4 -13 16 -30z"/>
<path d="M7834 2998 l-29 -33 33 29 c17 17 32 31 32 33 0 8 -8 1 -36 -29z"/>
<path d="M2595 2960 c10 -11 20 -20 23 -20 3 0 -3 9 -13 20 -10 11 -20 20 -23
20 -3 0 3 -9 13 -20z"/>
<path d="M3700 2736 c113 -114 237 -235 275 -269 87 -76 52 -36 -80 91 -54 54
-164 160 -243 237 -79 77 -147 142 -150 145 -4 2 85 -89 198 -204z"/>
<path d="M2645 2900 c10 -11 20 -20 23 -20 3 0 -3 9 -13 20 -10 11 -20 20 -23
20 -3 0 3 -9 13 -20z"/>
<path d="M2690 2845 c13 -14 26 -25 28 -25 3 0 -5 11 -18 25 -13 14 -26 25
-28 25 -3 0 5 -11 18 -25z"/>
<path d="M2835 2690 c66 -66 122 -120 125 -120 2 0 -49 54 -115 120 -66 66
-122 120 -125 120 -2 0 49 -54 115 -120z"/>
<path d="M2940 2685 c13 -14 26 -25 28 -25 3 0 -5 11 -18 25 -13 14 -26 25
-28 25 -3 0 5 -11 18 -25z"/>
<path d="M3680 2668 c41 -45 50 -53 50 -45 0 2 -21 23 -47 47 l-48 45 45 -47z"/>
<path d="M4745 2025 c0 -369 1 -518 2 -332 2 186 2 488 0 670 -1 183 -2 31 -2
-338z"/>
<path d="M3760 2585 c13 -14 26 -25 28 -25 3 0 -5 11 -18 25 -13 14 -26 25
-28 25 -3 0 5 -11 18 -25z"/>
<path d="M3047 2492 c83 -72 131 -109 103 -80 -26 27 -169 148 -175 148 -3 0
29 -30 72 -68z"/>
<path d="M8129 2523 c-8 -10 -21 -27 -29 -38 -15 -20 -15 -20 9 0 21 18 47 55
38 55 -2 0 -10 -8 -18 -17z"/>
<path d="M3915 2440 c21 -22 41 -40 44 -40 3 0 -13 18 -34 40 -21 22 -41 40
-44 40 -3 0 13 -18 34 -40z"/>
<path d="M7122 2321 c-78 -55 -186 -125 -240 -156 -122 -73 -162 -98 -139 -91
55 18 454 276 522 337 27 26 -15 -1 -143 -90z"/>
<path d="M3183 2382 c10 -11 46 -39 80 -63 78 -53 64 -37 -28 31 -38 29 -62
43 -52 32z"/>
<path d="M6733 2365 c0 -22 2 -30 4 -17 2 12 2 30 0 40 -3 9 -5 -1 -4 -23z"/>
<path d="M3990 2377 c0 -2 15 -16 33 -33 l32 -29 -29 33 c-28 30 -36 37 -36
29z"/>
<path d="M3330 2276 c0 -3 33 -27 73 -54 82 -55 107 -70 92 -55 -16 16 -165
114 -165 109z"/>
<path d="M3527 2144 c27 -22 123 -77 123 -71 0 3 -21 18 -47 33 -27 15 -59 34
-73 42 l-25 14 22 -18z"/>
<path d="M6723 2125 c0 -22 2 -30 4 -17 2 12 2 30 0 40 -3 9 -5 -1 -4 -23z"/>
<path d="M7440 1870 c-19 -16 -30 -29 -25 -29 6 0 26 13 45 29 19 16 30 30 25
30 -6 0 -26 -13 -45 -30z"/>
<path d="M4743 1315 c0 -22 2 -30 4 -17 2 12 2 30 0 40 -3 9 -5 -1 -4 -23z"/>
<path d="M4741 1204 c0 -11 3 -14 6 -6 3 7 2 16 -1 19 -3 4 -6 -2 -5 -13z"/>
</g>
</svg>
